<svg xmlns="http://www.w3.org/2000/svg" viewBox="0 0 200 200" role="img"><defs><style>.cls-1,.cls-12,.cls-4{opacity:0.33;}.cls-2,.cls-3,.cls-4,.cls-6{fill:#4e4e4e;}.cls-11,.cls-2,.cls-3,.cls-4,.cls-6,.cls-7,.cls-9{stroke:#46505c;stroke-linecap:round;stroke-linejoin:round;}.cls-2{stroke-width:4px;}.cls-3,.cls-4,.cls-6,.cls-9{stroke-width:4px;}.cls-12,.cls-4,.cls-6{isolation:isolate;}.cls-5,.cls-8{fill:#fff;stroke:#e6f3ff;}.cls-5{stroke-miterlimit:10;stroke-width:2px;}.cls-6{opacity:0.18;}.cls-11,.cls-7,.cls-9{fill:none;}.cls-7{stroke-width:4px;}.cls-8{stroke-miterlimit:10;}.cls-11,.cls-8{stroke-width:2px;}.cls-10,.cls-12{fill:#845b5b;}</style></defs><g class="cls-1"><path class="cls-2" d="M40.08,174.51l17.77-25.4a1.59,1.59,0,0,1,2.22-.39l18.14,12.69a1.59,1.59,0,0,1,.39,2.21L60.83,189a11.5,11.5,0,0,1-16,2.83l-1.88-1.32a11.5,11.5,0,0,1-2.84-16Z"/><path class="cls-2" d="M40.08,174.51l17.77-25.4a1.59,1.59,0,0,1,2.22-.39l18.14,12.69a1.59,1.59,0,0,1,.39,2.21L60.83,189a11.5,11.5,0,0,1-16,2.83l-1.88-1.32a11.5,11.5,0,0,1-2.84-16Z"/><circle class="cls-3" cx="108.32" cy="99.91" r="75.02"/><circle class="cls-3" cx="108.32" cy="99.91" r="75.02"/><circle class="cls-3" cx="108.32" cy="99.91" r="58.39"/><circle class="cls-3" cx="108.32" cy="99.91" r="58.39"/><path class="cls-4" d="M70.15,87.79c.78-1.76,1.62-3.48,2.48-5.17C76.55,75,81.23,67,88.7,62.29c6.35-4,15.22-5.55,22.1-2,6,3.06,9.56,9.36,15,13.28a97.6,97.6,0,0,0,11.41,6,17.14,17.14,0,0,1,8.78,9c1.84,5.63-1.2,11.63-1.23,17.56a17.5,17.5,0,0,0,2.62,9.25,8.9,8.9,0,0,1,2,4.55,6,6,0,0,1-3.94,4.75c-6,2.86-13.12,1.82-19.77,1.11s-14-.88-19.27,3.26a56.68,56.68,0,0,0-6,6.43A9.36,9.36,0,0,1,86.06,137a61.64,61.64,0,0,1-12.27-13.91A38.06,38.06,0,0,1,66.48,108c-1.19-6.86.8-13.71,3.67-20.16Z"/><circle class="cls-4" cx="120.12" cy="140.49" r="3.62"/><circle class="cls-4" cx="110.69" cy="141.83" r="2.51"/><circle class="cls-4" cx="128.69" cy="137.12" r="2.28"/><circle class="cls-4" cx="102.75" cy="142.77" r="1.63"/><circle class="cls-4" cx="135.88" cy="134.72" r="0.99"/><circle class="cls-4" cx="63.01" cy="86.12" r="2.34"/><circle class="cls-4" cx="126.58" cy="58.95" r="2.2"/><circle class="cls-4" cx="140.86" cy="69.77" r="1.99"/><circle class="cls-4" cx="142.49" cy="75.41" r="0.87"/></g><path class="cls-5" d="M23.78,156,41.56,130.6a1.6,1.6,0,0,1,2.22-.39l18.14,12.7a1.6,1.6,0,0,1,.4,2.22l-17.79,25.4a11.5,11.5,0,0,1-16,2.83L26.61,172a11.5,11.5,0,0,1-2.83-16Z"/><path class="cls-6" d="M43.78,130.22a1.59,1.59,0,0,0-2.22.39l-8,11.44a85.44,85.44,0,0,0,20.76,14.53l8-11.44a1.59,1.59,0,0,0-.38-2.22h0Z"/><path class="cls-7" d="M23.78,156,41.56,130.6a1.6,1.6,0,0,1,2.22-.39l18.14,12.7a1.6,1.6,0,0,1,.4,2.22l-17.79,25.4a11.5,11.5,0,0,1-16,2.83L26.61,172a11.5,11.5,0,0,1-2.83-16Z"/><circle class="cls-8" cx="91.68" cy="81.08" r="75.02"/><circle class="cls-9" cx="91.68" cy="81.08" r="75.02"/><circle class="cls-10" cx="91.68" cy="81.08" r="58.39"/><circle class="cls-11" cx="91.68" cy="81.08" r="58.39"/><path class="cls-12" d="M53.51,69c.78-1.75,1.63-3.48,2.49-5.17,3.92-7.67,8.6-15.62,16.07-20.33,6.35-4,15.22-5.55,22.09-2,6,3.06,9.56,9.36,15,13.28a99.07,99.07,0,0,0,11.41,6,17.16,17.16,0,0,1,8.78,9c1.84,5.63-1.2,11.64-1.23,17.56a17.5,17.5,0,0,0,2.62,9.25,9,9,0,0,1,2,4.55,6,6,0,0,1-4,4.75c-6,2.86-13.12,1.83-19.77,1.11s-14-.87-19.27,3.26a56.61,56.61,0,0,0-6,6.43,9.39,9.39,0,0,1-14.4,1.47A61.63,61.63,0,0,1,57.16,104.2a37.8,37.8,0,0,1-7.3-15.09c-1.21-6.85.79-13.7,3.65-20.15Z"/><circle class="cls-12" cx="103.49" cy="121.66" r="3.62"/><circle class="cls-12" cx="94.06" cy="123" r="2.51"/><circle class="cls-12" cx="112.06" cy="118.29" r="2.28"/><circle class="cls-12" cx="86.12" cy="123.94" r="1.63"/><circle class="cls-12" cx="119.25" cy="115.89" r="0.99"/><circle class="cls-12" cx="46.37" cy="67.29" r="2.34"/><circle class="cls-12" cx="109.95" cy="40.12" r="2.2"/><circle class="cls-12" cx="124.23" cy="50.94" r="1.99"/><circle class="cls-12" cx="125.86" cy="56.58" r="0.87"/><circle class="cls-10" cx="96.8" cy="85.91" r="4.61"/><circle class="cls-10" cx="81.8" cy="68.22" r="8.06"/></svg>
