<svg xmlns="http://www.w3.org/2000/svg" viewBox="0 0 500 500"><path fill="#e5e5e5" d="M0 0h500v500H0z" id="Layer_1" data-name="Layer 1"/><g id="Layer_2" data-name="Layer 2"><path class="cls-2" d="M36 184.2v-.57l5.11-3.55v.68l-4.5 3.13v.11l4.5 3.13v.67zM44.13 178.49h.62v4.69a3.67 3.67 0 012.69-1.5c1.63 0 2.41.88 2.41 2.7v4.19h-.62v-4.11c0-1.5-.56-2.22-1.89-2.22-1 0-1.61.49-2.58 1.51v4.82h-.62zM52.12 185.21a3.37 3.37 0 013.38-3.53 2.84 2.84 0 013 3.11 2.91 2.91 0 010 .51h-6v-.52h5.7l-.26.25c0-1.91-1-2.82-2.44-2.82a2.79 2.79 0 00-2.74 3 2.83 2.83 0 003 3 3.88 3.88 0 002.26-.72l.25.47a4.4 4.4 0 01-2.55.79 3.4 3.4 0 01-3.6-3.54zM60.73 186.9c0-1.51 1.51-2.22 5.16-2.54 0-1.11-.46-2.14-2-2.14a4.71 4.71 0 00-2.54.91l-.29-.45a5.41 5.41 0 012.91-1 2.34 2.34 0 012.54 2.59v4.3H66l-.07-1a4.86 4.86 0 01-2.81 1.18c-1.24-.01-2.39-.59-2.39-1.85zm5.16.08v-2.15c-3.42.31-4.52.95-4.52 2s.91 1.34 1.81 1.34a4.32 4.32 0 002.71-1.17zM68.79 185.22a3.28 3.28 0 013.21-3.54 3.21 3.21 0 012.2.95v-4.14h.62v10.08h-.53l-.06-1a3.46 3.46 0 01-2.4 1.17c-1.83 0-3.04-1.25-3.04-3.52zm5.37 1.78v-3.73a3.07 3.07 0 00-2.16-1 2.77 2.77 0 00-2.56 3c0 1.78.9 3 2.4 3a3.29 3.29 0 002.32-1.27zM77.82 187.08l4.51-3.08v-.06l-4.51-3.13v-.68l5.11 3.55v.57l-5.11 3.55zM103.17 201v-.57l5.11-3.55v.68l-4.5 3.13v.06l4.5 3.13v.67zM110.89 198.64h.51l.07.92a1.73 1.73 0 011.55-1.08 1.28 1.28 0 011.34 1.19c.49-.77.9-1.19 1.65-1.19.93 0 1.46.67 1.46 2v4.87h-.62v-4.81c0-1-.31-1.53-1-1.53s-1 .42-1.43 1.27v5.07h-.59v-4.81c0-1-.31-1.53-1-1.53s-1 .42-1.44 1.27v5.07h-.61zM119.32 202a3.37 3.37 0 013.38-3.53 2.84 2.84 0 013 3.11 2.91 2.91 0 010 .51h-6v-.52h5.76l-.26.25c0-1.91-1-2.82-2.44-2.82a2.79 2.79 0 00-2.74 3 2.83 2.83 0 003 3 3.81 3.81 0 002.26-.73l.25.48a4.4 4.4 0 01-2.55.79 3.4 3.4 0 01-3.66-3.54zM129.8 202.85v-3.67h-2v-.48l2-.06.08-2.22h.53v2.22H134v.54h-3.58v3.72c0 1.31.38 2.09 1.88 2.09a4.57 4.57 0 001.79-.35l.17.48a5.16 5.16 0 01-2 .42c-1.9 0-2.46-1.09-2.46-2.69zM136.33 203.7c0-1.51 1.51-2.22 5.16-2.54 0-1.11-.46-2.14-2-2.14a4.71 4.71 0 00-2.54.91l-.29-.45a5.37 5.37 0 012.9-1 2.34 2.34 0 012.55 2.59v4.3h-.52l-.07-1a4.86 4.86 0 01-2.81 1.18c-1.23-.01-2.38-.55-2.38-1.85zm5.16.08v-2.15c-3.42.31-4.52 1-4.52 2s.91 1.34 1.81 1.34a4.34 4.34 0 002.71-1.19zM153.07 202a3.44 3.44 0 013.66-3.54 3.29 3.29 0 012.42 1l-.36.43a2.91 2.91 0 00-2-.91 2.87 2.87 0 00-3 3 2.84 2.84 0 003 3 3.28 3.28 0 002.26-1l.33.43a3.77 3.77 0 01-2.61 1.09 3.38 3.38 0 01-3.7-3.5zM161.72 195.29h.63v4.69a3.67 3.67 0 012.69-1.5c1.63 0 2.41.88 2.41 2.7v4.19h-.62v-4.11c0-1.5-.56-2.22-1.89-2.22-1 0-1.62.49-2.58 1.51v4.82h-.63zM169.93 203.7c0-1.51 1.51-2.22 5.16-2.54 0-1.11-.46-2.14-2-2.14a4.68 4.68 0 00-2.54.91l-.29-.45a5.37 5.37 0 012.9-1 2.34 2.34 0 012.55 2.59v4.3h-.52l-.07-1a4.86 4.86 0 01-2.81 1.18c-1.24-.01-2.38-.55-2.38-1.85zm5.16.08v-2.15c-3.42.31-4.52 1-4.52 2s.91 1.34 1.81 1.34a4.34 4.34 0 002.71-1.19zM179.33 198.64h.53l.07 1.67a3.82 3.82 0 013.16-1.83 2.94 2.94 0 011.36.28l-.18.55a3.19 3.19 0 00-1.27-.24c-1.12 0-2.14.57-3.07 2.1v4.2h-.63zM186.6 204.47l.32-.45a4.63 4.63 0 003.05 1c1.37 0 2.08-.61 2.08-1.32s-.24-1.1-2.37-1.53c-1.71-.34-2.68-.89-2.68-1.88s.82-1.79 2.62-1.79a4.73 4.73 0 012.58.82l-.33.45a3.86 3.86 0 00-2.3-.75c-1.46 0-1.93.6-1.93 1.23s.69 1.06 2.21 1.38c2.33.49 2.84 1 2.84 2s-1 1.9-2.78 1.9a5.67 5.67 0 01-3.31-1.06zM194.92 202a3.37 3.37 0 013.37-3.53 2.84 2.84 0 013 3.11 4.36 4.36 0 010 .51h-6v-.52H201l-.26.25c0-1.91-1-2.82-2.44-2.82a2.79 2.79 0 00-2.74 3 2.83 2.83 0 002.95 3 3.81 3.81 0 002.26-.73l.25.48a4.4 4.4 0 01-2.55.79 3.4 3.4 0 01-3.55-3.54zM205.4 202.85v-3.67h-2v-.48l2-.06.08-2.22h.52v2.22h3.58v.54H206v3.72c0 1.31.38 2.09 1.88 2.09a4.57 4.57 0 001.79-.35l.17.48a5.16 5.16 0 01-2.05.42c-1.79 0-2.39-1.09-2.39-2.69zM212 199.06h5.76v.52H212zm0 2.85h5.76v.53H212zM221.26 197v-1.24h1V197l-.26 3h-.5zm2.92 0v-1.24h1V197l-.18 3h-.5zM228.69 201.92v-5.78h.65v5.7c0 2.37 1.08 3.11 2.31 3.11s2.35-.74 2.35-3.11v-5.7h.61v5.78c0 2.79-1.41 3.62-3 3.62s-2.92-.83-2.92-3.62zM239.73 196.7h-3.22v-.56h7.08v.56h-3.22v8.67h-.64zM246.35 196.14h5.39v.56H247v3.67h4v.56h-4v4.44h-.64zM254 200.49h5.76v.51H254zM262.06 203.08a2.93 2.93 0 012.06-2.51 2.5 2.5 0 01-1.4-2.08 2.34 2.34 0 012.6-2.2c1.74 0 2.7 1 2.7 2.34a3 3 0 01-1.42 2.26c1 .5 1.81 1 1.81 2.31s-1.13 2.34-3.1 2.34-3.25-1.06-3.25-2.46zm5.73.11c0-1.5-1.46-1.84-3.19-2.4-1.1.53-1.93 1.16-1.93 2.26s1 2 2.65 2 2.47-.84 2.47-1.86zm-.37-4.59a1.87 1.87 0 00-2.11-1.83 1.75 1.75 0 00-2 1.67c0 1.27 1.22 1.78 2.71 2.24a2.61 2.61 0 001.4-2.08zM271.66 197v-1.24h1.05V197l-.28 3.05h-.5zm2.92 0v-1.24h1.05V197l-.28 3.05h-.5zM279.42 203.88l4.5-3.13v-.06l-4.5-3.13v-.68l5.11 3.55v.57l-5.11 3.55zM103.17 217.8v-.57l5.11-3.55v.68l-4.5 3.13v.06l4.5 3.13v.67zM110.89 215.44h.51l.07.92a1.73 1.73 0 011.55-1.08 1.28 1.28 0 011.34 1.19c.49-.77.9-1.19 1.65-1.19.93 0 1.46.67 1.46 2v4.87h-.62v-4.81c0-1-.31-1.53-1-1.53s-1 .42-1.43 1.27v5.07h-.59v-4.81c0-1-.31-1.53-1-1.53s-1 .42-1.44 1.27v5.07h-.61zM119.32 218.81a3.37 3.37 0 013.38-3.53 2.84 2.84 0 013 3.11 2.91 2.91 0 010 .51h-6v-.52h5.76l-.26.25c0-1.91-1-2.82-2.44-2.82a2.79 2.79 0 00-2.74 3 2.83 2.83 0 003 3 3.88 3.88 0 002.26-.72l.25.47a4.4 4.4 0 01-2.55.79 3.4 3.4 0 01-3.66-3.54zM129.8 219.66V216h-2v-.48l2-.06.08-2.22h.53v2.22H134v.54h-3.58v3.72c0 1.31.38 2.09 1.88 2.09a4.57 4.57 0 001.79-.35l.17.48a5.16 5.16 0 01-2 .42c-1.9-.02-2.46-1.11-2.46-2.7zM136.33 220.5c0-1.51 1.51-2.22 5.16-2.54 0-1.11-.46-2.14-2-2.14a4.71 4.71 0 00-2.54.91l-.29-.45a5.37 5.37 0 012.9-1 2.34 2.34 0 012.55 2.59v4.3h-.52l-.07-1a4.86 4.86 0 01-2.81 1.18c-1.23-.01-2.38-.59-2.38-1.85zm5.16.08v-2.15c-3.42.31-4.52.95-4.52 2s.91 1.34 1.81 1.34a4.34 4.34 0 002.71-1.19zM153.32 215.44h.53l.07 1.3h.08a3.63 3.63 0 012.66-1.46c1.63 0 2.41.88 2.41 2.7v4.19h-.62v-4.11c0-1.5-.56-2.22-1.89-2.22-1 0-1.62.49-2.58 1.51v4.82h-.63zM161.53 220.5c0-1.51 1.51-2.22 5.16-2.54 0-1.11-.46-2.14-2-2.14a4.68 4.68 0 00-2.54.91l-.29-.45a5.37 5.37 0 012.9-1 2.34 2.34 0 012.55 2.59v4.3h-.52l-.07-1a4.86 4.86 0 01-2.81 1.18c-1.24-.01-2.38-.59-2.38-1.85zm5.16.08v-2.15c-3.42.31-4.52.95-4.52 2s.91 1.34 1.81 1.34a4.34 4.34 0 002.71-1.19zM169.69 215.44h.51l.07.92a1.73 1.73 0 011.55-1.08 1.28 1.28 0 011.34 1.19c.49-.77.9-1.19 1.65-1.19.93 0 1.46.67 1.46 2v4.87h-.62v-4.81c0-1-.31-1.53-1-1.53s-1 .42-1.43 1.27v5.07h-.59v-4.81c0-1-.31-1.53-1-1.53s-1 .42-1.44 1.27v5.07h-.61zM178.12 218.81a3.37 3.37 0 013.38-3.53 2.84 2.84 0 013 3.11 2.91 2.91 0 010 .51h-6v-.52h5.77l-.26.25c0-1.91-1-2.82-2.44-2.82a2.79 2.79 0 00-2.74 3 2.83 2.83 0 003 3 3.88 3.88 0 002.26-.72l.25.47a4.4 4.4 0 01-2.55.79 3.4 3.4 0 01-3.67-3.54zM186.77 215.86h5.76v.52h-5.76zm0 2.85h5.76v.53h-5.76zM196.06 213.78v-1.24h1.05v1.24l-.28 3.05h-.5zm2.92 0v-1.24H200v1.24l-.28 3.05h-.5zM203.11 215.44h.65l1.86 4.21c.29.68.58 1.33.83 1.94h.06c.26-.61.51-1.26.81-1.94l1.86-4.21h.61l-3 6.73h-.66zM215.38 216H212v-.54h4v6.73h-.62zm-.5-2.84a.66.66 0 11.66.67.64.64 0 01-.66-.69zM220.12 218.81a3.37 3.37 0 013.37-3.53 2.84 2.84 0 013 3.11 4.36 4.36 0 010 .51h-6v-.52h5.77l-.26.25c0-1.91-1-2.82-2.44-2.82a2.79 2.79 0 00-2.74 3 2.83 2.83 0 003 3 3.88 3.88 0 002.26-.72l.25.47a4.43 4.43 0 01-2.55.79 3.4 3.4 0 01-3.66-3.54zM227.6 215.44h.66l1.07 4.36c.14.63.28 1.19.4 1.8h.05c.14-.61.29-1.18.45-1.8l1.07-4.24h.7l1.07 4.24c.15.63.32 1.19.45 1.8h.06c.14-.61.27-1.17.41-1.8l1.05-4.36h.62l-1.7 6.73h-.83l-1-4.07c-.16-.59-.28-1.23-.44-1.93h-.06c-.14.7-.26 1.36-.44 2l-1 4h-.83zM237.32 215.44h.53l.07 1a3.87 3.87 0 012.51-1.13c1.9 0 2.85 1.34 2.85 3.43 0 2.28-1.47 3.63-3.15 3.63a3.66 3.66 0 01-2.22-1v3.83h-.63zm5.34 3.27c0-1.65-.65-2.88-2.3-2.88a3.63 3.63 0 00-2.41 1.23v3.74a3.55 3.55 0 002.18 1c1.47-.01 2.53-1.27 2.53-3.09zM245.19 218.82a3.27 3.27 0 113.26 3.52 3.26 3.26 0 01-3.26-3.52zm5.87 0a2.63 2.63 0 10-2.61 3 2.71 2.71 0 002.61-3zM254.93 215.44h.53l.07 1.67a3.82 3.82 0 013.16-1.83 2.94 2.94 0 011.36.28l-.18.55a3.22 3.22 0 00-1.27-.24c-1.12 0-2.14.57-3.07 2.1v4.2h-.63zM264.2 219.66V216h-2v-.48l2-.06.08-2.22h.53v2.22h3.58v.54h-3.58v3.72c0 1.31.38 2.09 1.88 2.09a4.48 4.48 0 001.78-.35l.17.48a5.07 5.07 0 01-2 .42c-1.88-.02-2.44-1.11-2.44-2.7zM271.66 213.78v-1.24h1.05v1.24l-.28 3.05h-.5zm2.92 0v-1.24h1.05v1.24l-.28 3.05h-.5zM287.47 218.82a3.43 3.43 0 013.66-3.54 3.29 3.29 0 012.42 1l-.36.43a2.91 2.91 0 00-2.05-.91 2.87 2.87 0 00-3 3 2.84 2.84 0 003 3 3.28 3.28 0 002.26-1l.32.43a3.75 3.75 0 01-2.61 1.09 3.37 3.37 0 01-3.64-3.5zM295.59 218.82a3.27 3.27 0 113.26 3.52 3.25 3.25 0 01-3.26-3.52zm5.87 0a2.64 2.64 0 10-5.22 0 2.63 2.63 0 105.22 0zM304.52 215.44h.48l.07 1.3h.06a3.61 3.61 0 012.65-1.46c1.64 0 2.42.88 2.42 2.7v4.19h-.62v-4.11c0-1.5-.56-2.22-1.9-2.22-1 0-1.61.49-2.58 1.51v4.82h-.62zM314.59 219.66V216h-2v-.48l2.05-.06.08-2.22h.53v2.22h3.58v.54h-3.58v3.72c0 1.31.37 2.09 1.87 2.09a4.53 4.53 0 001.79-.35l.17.48a5.09 5.09 0 01-2.05.42c-1.87-.02-2.44-1.11-2.44-2.7zM320.92 218.81a3.37 3.37 0 013.37-3.53 2.84 2.84 0 013 3.11 2.92 2.92 0 010 .51h-6v-.52H327l-.26.25c0-1.91-1-2.82-2.43-2.82a2.78 2.78 0 00-2.74 3 2.83 2.83 0 002.94 3 3.85 3.85 0 002.26-.72l.26.47a4.43 4.43 0 01-2.55.79 3.39 3.39 0 01-3.56-3.54zM329.72 215.44h.52l.07 1.3h.06a3.61 3.61 0 012.65-1.46c1.63 0 2.42.88 2.42 2.7v4.19h-.63v-4.11c0-1.5-.56-2.22-1.89-2.22-.95 0-1.61.49-2.58 1.51v4.82h-.62zM339.79 219.66V216h-2v-.48l2-.06.09-2.22h.53v2.22H344v.54h-3.57v3.72c0 1.31.37 2.09 1.87 2.09a4.53 4.53 0 001.79-.35l.17.48a5.12 5.12 0 01-2.05.42c-1.85-.02-2.42-1.11-2.42-2.7zM346.37 215.86h5.75v.52h-5.75zm0 2.85h5.75v.53h-5.75zM355.65 213.78v-1.24h1v1.24l-.28 3.05h-.5zm2.92 0v-1.24h1.05v1.24l-.28 3.05h-.5zM362 215.44h.66l1.07 4.36c.15.63.29 1.19.4 1.8h.06c.13-.61.28-1.18.44-1.8l1.07-4.24h.74l1.07 4.24c.16.63.32 1.19.45 1.8h.04c.14-.61.27-1.17.41-1.8l1.06-4.36h.61l-1.7 6.73h-.83l-1.05-4.07c-.15-.59-.28-1.23-.44-1.93H366c-.14.7-.26 1.36-.43 2l-1 4h-.84zM375 216h-3.4v-.54h4v6.73h-.6zm-.49-2.84a.66.66 0 11.66.67.64.64 0 01-.69-.69zM379.58 218.82a3.28 3.28 0 013.17-3.54 3.21 3.21 0 012.2.95v-4.14h.62v10.08H385l-.06-1a3.46 3.46 0 01-2.4 1.17c-1.76 0-2.96-1.25-2.96-3.52zm5.37 1.73v-3.73a3.07 3.07 0 00-2.16-1 2.77 2.77 0 00-2.56 3c0 1.78.9 3 2.4 3a3.29 3.29 0 002.37-1.27zM390.19 219.66V216h-2v-.48l2-.06.08-2.22h.53v2.22h3.58v.54h-3.58v3.72c0 1.31.38 2.09 1.88 2.09a4.57 4.57 0 001.79-.35l.17.48a5.16 5.16 0 01-2 .42c-1.89-.02-2.45-1.11-2.45-2.7zM396.92 212.09h.62v4.67a3.67 3.67 0 012.69-1.5c1.63 0 2.41.88 2.41 2.7v4.19H402v-4.11c0-1.5-.56-2.22-1.89-2.22-1 0-1.62.49-2.58 1.51v4.82h-.62zM405.16 215.86h5.76v.52h-5.76zm0 2.85h5.76v.53h-5.76zM413.18 218.82a3.28 3.28 0 013.16-3.54 3.21 3.21 0 012.21.95v-4.14h.63v10.08h-.53l-.07-1a3.46 3.46 0 01-2.4 1.17c-1.8 0-3-1.25-3-3.52zm5.36 1.73v-3.73a3.05 3.05 0 00-2.15-1 2.77 2.77 0 00-2.56 3c0 1.78.9 3 2.4 3a3.26 3.26 0 002.31-1.27zM421.71 218.81a3.37 3.37 0 013.37-3.53 2.84 2.84 0 013 3.11 4.36 4.36 0 010 .51h-6v-.52h5.77l-.27.25c0-1.91-1-2.82-2.43-2.82a2.79 2.79 0 00-2.74 3 2.83 2.83 0 002.95 3 3.82 3.82 0 002.25-.72l.26.47a4.43 4.43 0 01-2.55.79 3.4 3.4 0 01-3.61-3.54zM430.36 217.29h5.76v.52h-5.76zM35.11 232.24h.65l1.86 4.21c.3.68.58 1.33.84 1.94.26-.61.52-1.26.82-1.94l1.85-4.21h.61l-3 6.73h-.66zM47.38 232.78H44v-.54h4V239h-.62zm-.49-2.84a.66.66 0 11.65.67.64.64 0 01-.65-.67zM52.27 235.62a3.44 3.44 0 013.67-3.54 3.28 3.28 0 012.41 1l-.36.43a2.91 2.91 0 00-2-.91 2.87 2.87 0 00-3 3 2.84 2.84 0 003 3 3.28 3.28 0 002.26-1l.33.43a3.77 3.77 0 01-2.61 1.09 3.38 3.38 0 01-3.7-3.5zM60.52 235.61a3.37 3.37 0 013.38-3.53 2.84 2.84 0 013 3.11 2.91 2.91 0 010 .51h-6v-.52h5.7l-.26.25c0-1.91-1-2.82-2.44-2.82a2.79 2.79 0 00-2.74 3 2.83 2.83 0 003 3 3.88 3.88 0 002.26-.72l.25.47a4.4 4.4 0 01-2.55.79 3.4 3.4 0 01-3.6-3.54zM69.17 234.09h5.76v.52h-5.76zM76.4 232.24h.66l1.07 4.36c.15.63.28 1.19.4 1.8.14-.61.29-1.18.45-1.8l1.07-4.24h.74l1.07 4.24c.16.63.32 1.19.45 1.8h.06c.14-.61.27-1.17.41-1.8l1.06-4.36h.61L82.8 239H82l-1-4.07c-.15-.59-.28-1.23-.44-1.93h-.06c-.14.7-.26 1.36-.43 1.95L79 239h-.83zM89.38 232.78H86v-.54h4V239h-.62zm-.49-2.84a.66.66 0 11.65.67.64.64 0 01-.65-.67zM94 235.62a3.28 3.28 0 013.17-3.54 3.21 3.21 0 012.2.95v-4.14h.63V239h-.53l-.06-1a3.46 3.46 0 01-2.4 1.17c-1.82-.03-3.01-1.28-3.01-3.55zm5.37 1.73v-3.73a3.07 3.07 0 00-2.16-1 2.77 2.77 0 00-2.56 3c0 1.78.9 3 2.4 3a3.29 3.29 0 002.31-1.27zM104.6 236.46v-3.68h-2v-.48l2-.06.08-2.22h.53v2.22h3.58v.54h-3.58v3.72c0 1.31.38 2.09 1.88 2.09a4.57 4.57 0 001.79-.35l.17.48a5.16 5.16 0 01-2 .42c-1.89 0-2.45-1.09-2.45-2.68zM111.33 228.89h.67v4.69a3.67 3.67 0 012.69-1.5c1.63 0 2.41.88 2.41 2.7V239h-.62v-4.11c0-1.5-.56-2.22-1.89-2.22-1 0-1.61.49-2.58 1.51V239h-.62zM103.17 251.4v-.57l5.11-3.55v.72l-4.5 3.13v.06l4.5 3.13v.68zM113 253.25v-3.67h-2v-.48l2-.1.08-2.22h.53V249h3.58v.54h-3.58v3.72c0 1.31.38 2.09 1.88 2.09a4.57 4.57 0 001.79-.35l.17.48a5.16 5.16 0 01-2 .42c-1.89.04-2.45-1.05-2.45-2.65zM123 249.58h-3.37V249h4v6.73H123zm-.5-2.84a.66.66 0 11.66.67.64.64 0 01-.68-.67zM129.8 253.25v-3.67h-2v-.48l2-.06.08-2.22h.53V249H134v.54h-3.58v3.72c0 1.31.38 2.09 1.88 2.09a4.57 4.57 0 001.79-.35l.17.48a5.16 5.16 0 01-2 .42c-1.9.04-2.46-1.05-2.46-2.65zM138.84 253.74v-7.51h-2.55v-.54h3.17v8.14c0 1.06.52 1.56 1.47 1.56a3.2 3.2 0 001.39-.35l.2.48a3.46 3.46 0 01-1.68.42c-1.27 0-2-.67-2-2.2zM144.52 252.41a3.37 3.37 0 013.38-3.53 2.84 2.84 0 013 3.11 2.91 2.91 0 010 .51h-6v-.5h5.77l-.26.26c0-1.91-1-2.82-2.44-2.82a2.79 2.79 0 00-2.74 3 2.83 2.83 0 003 3 3.81 3.81 0 002.26-.73l.25.48a4.4 4.4 0 01-2.55.79 3.4 3.4 0 01-3.67-3.57zM153.42 254.28l4.51-3.13v-.06l-4.51-3.09v-.68l5.11 3.55v.57l-5.11 3.56zM161.89 246.54h2.64c1.83 0 3 .67 3 2.44s-1.21 2.55-3 2.55h-2v4.24h-.65zm2.47 4.45c1.63 0 2.54-.65 2.54-2s-.91-1.9-2.54-1.9h-1.82V251zm.64.16l2.74 4.62H167l-2.61-4.43zM169.72 252.41a3.37 3.37 0 013.38-3.53 2.84 2.84 0 013 3.11 2.91 2.91 0 010 .51h-6v-.5h5.77l-.26.26c0-1.91-1-2.82-2.44-2.82a2.79 2.79 0 00-2.74 3 2.83 2.83 0 002.95 3 3.81 3.81 0 002.26-.73l.25.48a4.4 4.4 0 01-2.55.79 3.4 3.4 0 01-3.62-3.57zM178.2 254.87l.32-.45a4.63 4.63 0 003 1c1.37 0 2.08-.61 2.08-1.32s-.24-1.1-2.37-1.53c-1.71-.34-2.68-.89-2.68-1.88s.82-1.79 2.62-1.79a4.73 4.73 0 012.58.82l-.33.45a3.86 3.86 0 00-2.3-.75c-1.46 0-1.93.6-1.93 1.23s.69 1.07 2.21 1.38c2.33.49 2.84 1 2.84 2s-1 1.9-2.78 1.9a5.67 5.67 0 01-3.26-1.06zM186.92 249h.53l.07 1a3.87 3.87 0 012.51-1.13c1.9 0 2.85 1.34 2.85 3.43 0 2.28-1.47 3.63-3.15 3.63a3.72 3.72 0 01-2.22-1v3.83h-.63zm5.34 3.27c0-1.65-.65-2.88-2.3-2.88a3.63 3.63 0 00-2.41 1.23v3.74a3.55 3.55 0 002.18 1c1.47.03 2.53-1.23 2.53-3.05zM194.79 252.42a3.27 3.27 0 113.26 3.52 3.26 3.26 0 01-3.26-3.52zm5.87 0a2.63 2.63 0 10-2.61 3 2.71 2.71 0 002.61-3zM203.72 249h.53l.07 1.29h.05a3.65 3.65 0 012.66-1.45c1.63 0 2.41.88 2.41 2.7v4.19h-.62v-4.11c0-1.5-.56-2.22-1.89-2.22-1 0-1.62.49-2.58 1.51v4.82h-.63zM211.8 254.87l.32-.45a4.63 4.63 0 003 1c1.37 0 2.08-.61 2.08-1.32s-.24-1.1-2.37-1.53c-1.71-.34-2.68-.89-2.68-1.88s.82-1.79 2.62-1.79a4.73 4.73 0 012.58.82l-.33.45a3.86 3.86 0 00-2.3-.75c-1.46 0-1.93.6-1.93 1.23s.69 1.07 2.21 1.38c2.33.49 2.84 1 2.84 2s-1 1.9-2.78 1.9a5.67 5.67 0 01-3.26-1.06zM223.78 249.58h-3.37V249h4v6.73h-.62zm-.5-2.84a.66.66 0 11.66.67.64.64 0 01-.66-.67zM228.31 249h.69l1.86 4.21c.29.68.58 1.33.83 1.94h.06c.26-.61.51-1.26.81-1.94l1.86-4.21h.58l-3 6.73h-.66zM236.92 252.41a3.37 3.37 0 013.37-3.53 2.84 2.84 0 013 3.11 4.36 4.36 0 010 .51h-6v-.5H243l-.27.26c0-1.91-1-2.82-2.43-2.82a2.79 2.79 0 00-2.74 3 2.83 2.83 0 002.95 3 3.81 3.81 0 002.26-.73l.25.48a4.43 4.43 0 01-2.55.79 3.4 3.4 0 01-3.55-3.57zM253.78 246.54h.86l1.61 4.33.57 1.61h.06l.54-1.61 1.64-4.33h.86v9.23h-.63v-6.3c0-.66.06-1.56.08-2.19l-.51 1.58-1.73 4.45h-.51l-1.71-4.45-.54-1.58c0 .63.09 1.53.09 2.19v6.3h-.61zM262.33 254.1c0-1.51 1.51-2.22 5.16-2.54 0-1.11-.46-2.14-2-2.14a4.65 4.65 0 00-2.54.91l-.29-.45a5.37 5.37 0 012.9-1 2.34 2.34 0 012.55 2.59v4.3h-.53l-.06-1a4.86 4.86 0 01-2.81 1.18c-1.24-.01-2.38-.59-2.38-1.85zm5.16.08V252c-3.42.31-4.52.95-4.52 2s.9 1.34 1.81 1.34a4.34 4.34 0 002.71-1.16zM274.18 249.58h-3.37V249h4v6.73h-.62zm-.5-2.84a.66.66 0 11.66.67.64.64 0 01-.66-.67zM279.32 249h.53l.06 1.29h.09a3.65 3.65 0 012.66-1.45c1.63 0 2.41.88 2.41 2.7v4.19h-.62v-4.11c0-1.5-.56-2.22-1.89-2.22-1 0-1.62.49-2.59 1.51v4.82h-.62zM295.78 246.54h.85l1.62 4.33.57 1.61h.06l.54-1.61 1.64-4.33h.86v9.23h-.63v-6.3c0-.66.06-1.56.08-2.19l-.51 1.58-1.73 4.45h-.51l-1.71-4.45-.55-1.58c0 .63.09 1.53.09 2.19v6.3h-.61zM304.12 252.41a3.37 3.37 0 013.37-3.53 2.84 2.84 0 013 3.11 2.92 2.92 0 010 .51h-6v-.5h5.77l-.27.26c0-1.91-1-2.82-2.43-2.82a2.79 2.79 0 00-2.74 3 2.83 2.83 0 002.95 3 3.76 3.76 0 002.25-.73l.26.48a4.43 4.43 0 01-2.55.79 3.39 3.39 0 01-3.61-3.57zM312.92 249h.52l.07 1.29h.06a3.63 3.63 0 012.65-1.45c1.63 0 2.42.88 2.42 2.7v4.19H318v-4.11c0-1.5-.56-2.22-1.9-2.22-.95 0-1.61.49-2.58 1.51v4.82h-.62zM321.05 253.23V249h.63v4.11c0 1.5.56 2.23 1.89 2.23a3.4 3.4 0 002.58-1.52V249h.62v6.73h-.53l-.07-1.3h-.05a3.52 3.52 0 01-2.65 1.47c-1.63.04-2.42-.84-2.42-2.67zM330 251.4v-.57l5.12-3.55v.72l-4.51 3.13v.06l4.51 3.13v.68zM342.82 245.82h.63L338.87 258h-.63zM348.19 253.25v-3.67h-2v-.48l2-.06.09-2.22h.52V249h3.58v.54h-3.58v3.72c0 1.31.38 2.09 1.88 2.09a4.53 4.53 0 001.79-.35l.17.48a5.12 5.12 0 01-2 .42c-1.88.04-2.45-1.05-2.45-2.65zM358.17 249.58h-3.37V249h4v6.73h-.62zm-.49-2.84a.66.66 0 11.66.67.64.64 0 01-.66-.67zM365 253.25v-3.67h-2v-.48l2-.06.09-2.22h.52V249h3.58v.54h-3.58v3.72c0 1.31.38 2.09 1.88 2.09a4.53 4.53 0 001.79-.35l.17.48a5.16 5.16 0 01-2.05.42c-1.85.04-2.4-1.05-2.4-2.65zM374 253.74v-7.51h-2.55v-.54h3.18v8.14c0 1.06.51 1.56 1.46 1.56a3.17 3.17 0 001.39-.35l.2.48a3.46 3.46 0 01-1.68.42c-1.24 0-2-.67-2-2.2zM379.71 252.41a3.37 3.37 0 013.38-3.53 2.84 2.84 0 013 3.11 2.91 2.91 0 010 .51h-6v-.5h5.76l-.26.26c0-1.91-1-2.82-2.44-2.82a2.79 2.79 0 00-2.74 3 2.83 2.83 0 002.95 3 3.81 3.81 0 002.26-.73l.25.48a4.4 4.4 0 01-2.55.79 3.4 3.4 0 01-3.61-3.57zM388.61 254.28l4.51-3.13v-.06l-4.51-3.09v-.68l5.11 3.55v.57l-5.11 3.56zM103.17 268.2v-.57l5.11-3.55v.68l-4.5 3.13v.11l4.5 3.13v.67zM113.64 270.54V263h-2.55v-.55h3.17v8.13c0 1.07.52 1.57 1.47 1.57a3.2 3.2 0 001.39-.35l.2.48a3.46 3.46 0 01-1.68.42c-1.27.04-2-.63-2-2.16zM123 266.38h-3.37v-.54h4v6.73H123zm-.5-2.84a.66.66 0 11.66.67.64.64 0 01-.68-.67zM128.12 265.84h.53l.07 1.29h.05a3.65 3.65 0 012.66-1.45c1.63 0 2.41.88 2.41 2.7v4.19h-.62v-4.11c0-1.5-.56-2.22-1.89-2.22-1 0-1.62.49-2.58 1.51v4.82h-.63zM136.77 262.49h.63v7.4l4.32-4.05h.77l-5.14 4.82v1.91h-.63zm2.45 6.18l.42-.43 3.35 4.33h-.72zM154.13 265.84h.53l.07 1.67a3.82 3.82 0 013.16-1.83 2.94 2.94 0 011.36.28l-.18.55a3.19 3.19 0 00-1.27-.24c-1.12 0-2.14.57-3.07 2.1v4.2h-.63zM161.32 269.21a3.37 3.37 0 013.38-3.53 2.84 2.84 0 013 3.11 2.91 2.91 0 010 .51h-6v-.52h5.77l-.26.25c0-1.91-1-2.82-2.44-2.82a2.79 2.79 0 00-2.74 3 2.83 2.83 0 002.95 3 3.81 3.81 0 002.26-.73l.25.48a4.4 4.4 0 01-2.55.79 3.4 3.4 0 01-3.62-3.54zM172.44 270.54V263h-2.55v-.55h3.17v8.13c0 1.07.52 1.57 1.47 1.57a3.2 3.2 0 001.39-.35l.2.48a3.46 3.46 0 01-1.68.42c-1.27.04-2-.63-2-2.16zM178.37 266.26h5.76v.52h-5.76zm0 2.85h5.76v.53h-5.76zM187.66 264.18v-1.24h1.05v1.24l-.28 3.05h-.5zm2.92 0v-1.24h1v1.24l-.28 3.05h-.5zM195 271.67l.32-.45a4.63 4.63 0 003.05 1c1.37 0 2.08-.62 2.08-1.33s-.24-1.1-2.37-1.53c-1.71-.34-2.68-.89-2.68-1.88s.82-1.79 2.62-1.79a4.73 4.73 0 012.58.82l-.33.45a3.85 3.85 0 00-2.3-.74c-1.46 0-1.93.59-1.93 1.22s.69 1.07 2.21 1.38c2.33.49 2.84 1 2.84 2s-1 1.9-2.78 1.9a5.67 5.67 0 01-3.31-1.05zM205.4 270.05v-3.67h-2v-.48l2-.06.08-2.22h.52v2.22h3.58v.54H206v3.72c0 1.31.38 2.09 1.88 2.09a4.57 4.57 0 001.79-.35l.17.48a5.16 5.16 0 01-2.05.42c-1.79 0-2.39-1.09-2.39-2.69zM211.59 275.49l.16-.54a2.17 2.17 0 00.66.11c1 0 1.7-.75 2.11-1.78l.23-.58-3.26-6.86h.64l2 4.23c.27.57.6 1.29.92 1.9h.06c.27-.6.56-1.33.79-1.9l1.75-4.23h.61l-3.17 7.58a2.92 2.92 0 01-2.66 2.21 2.38 2.38 0 01-.84-.14zM222.84 270.54V263h-2.55v-.55h3.17v8.13c0 1.07.51 1.57 1.47 1.57a3.2 3.2 0 001.39-.35l.2.48a3.46 3.46 0 01-1.68.42c-1.27.04-2-.63-2-2.16zM228.52 269.21a3.37 3.37 0 013.37-3.53 2.84 2.84 0 013 3.11 4.36 4.36 0 010 .51h-6v-.52h5.77l-.27.25c0-1.91-1-2.82-2.43-2.82a2.79 2.79 0 00-2.74 3 2.83 2.83 0 003 3 3.81 3.81 0 002.26-.73l.25.48a4.43 4.43 0 01-2.55.79 3.4 3.4 0 01-3.66-3.54zM237 271.67l.32-.45a4.63 4.63 0 003.05 1c1.37 0 2.08-.62 2.08-1.33s-.24-1.1-2.37-1.53c-1.71-.34-2.68-.89-2.68-1.88s.82-1.79 2.62-1.79a4.73 4.73 0 012.58.82l-.33.45a3.85 3.85 0 00-2.3-.74c-1.46 0-1.93.59-1.93 1.22s.69 1.07 2.21 1.38c2.33.49 2.84 1 2.84 2s-1 1.9-2.78 1.9a5.67 5.67 0 01-3.31-1.05zM245.72 262.49h.63v4.69a3.67 3.67 0 012.69-1.5c1.63 0 2.41.88 2.41 2.7v4.19h-.62v-4.11c0-1.5-.56-2.22-1.89-2.22-1 0-1.62.49-2.58 1.51v4.82h-.63zM253.72 269.21a3.37 3.37 0 013.37-3.53 2.84 2.84 0 013 3.11 4.36 4.36 0 010 .51h-6v-.52h5.77l-.26.25c0-1.91-1-2.82-2.44-2.82a2.79 2.79 0 00-2.74 3 2.83 2.83 0 002.95 3 3.76 3.76 0 002.25-.73l.26.48a4.4 4.4 0 01-2.55.79 3.4 3.4 0 01-3.61-3.54zM262.12 269.21a3.37 3.37 0 013.37-3.53 2.84 2.84 0 013 3.11 4.36 4.36 0 010 .51h-6v-.52h5.77l-.27.25c0-1.91-1-2.82-2.43-2.82a2.79 2.79 0 00-2.74 3 2.83 2.83 0 002.95 3 3.76 3.76 0 002.25-.73l.26.48a4.43 4.43 0 01-2.55.79 3.4 3.4 0 01-3.61-3.54zM272.6 270.05v-3.67h-2v-.48l2.05-.06.08-2.22h.53v2.22h3.58v.54h-3.58v3.72c0 1.31.38 2.09 1.88 2.09a4.48 4.48 0 001.78-.35l.17.48a5.07 5.07 0 01-2 .42c-1.93 0-2.49-1.09-2.49-2.69zM280.06 264.18v-1.24h1.05v1.24l-.28 3.05h-.5zm2.91 0v-1.24h1v1.24l-.28 3.05h-.5zM297.8 270.05v-3.67h-2v-.48l2.05-.06.08-2.22h.53v2.22H302v.54h-3.58v3.72c0 1.31.37 2.09 1.87 2.09a4.5 4.5 0 001.79-.35l.17.48a5.07 5.07 0 01-2 .42c-1.89 0-2.45-1.09-2.45-2.69zM304 275.49l.17-.54a2.12 2.12 0 00.66.11c1 0 1.7-.75 2.11-1.78l.23-.58-3.27-6.86h.65l2 4.23c.27.57.6 1.29.92 1.9h.06c.27-.6.55-1.33.79-1.9l1.74-4.23h.61l-3.16 7.58a2.92 2.92 0 01-2.66 2.21 2.49 2.49 0 01-.85-.14zM312.92 265.84h.52l.07 1a3.87 3.87 0 012.52-1.13c1.9 0 2.85 1.34 2.85 3.43 0 2.28-1.47 3.63-3.15 3.63a3.7 3.7 0 01-2.22-1V275.61h-.62zm5.34 3.27c0-1.65-.66-2.88-2.3-2.88a3.65 3.65 0 00-2.42 1.23v3.74a3.58 3.58 0 002.19 1c1.47-.01 2.53-1.27 2.53-3.09zM320.92 269.21a3.37 3.37 0 013.37-3.53 2.84 2.84 0 013 3.11 2.92 2.92 0 010 .51h-6v-.52H327l-.26.25c0-1.91-1-2.82-2.43-2.82a2.78 2.78 0 00-2.74 3 2.83 2.83 0 002.94 3 3.79 3.79 0 002.26-.73l.26.48a4.43 4.43 0 01-2.55.79 3.39 3.39 0 01-3.56-3.54zM329.57 266.26h5.75v.52h-5.75zm0 2.85h5.75v.53h-5.75zM338.86 264.18v-1.24h1.05v1.24l-.28 3.05h-.5zm2.91 0v-1.24h1.05v1.24l-.28 3.05h-.5zM348.19 270.05v-3.67h-2v-.48l2-.06.09-2.22h.52v2.22h3.58v.54h-3.58v3.72c0 1.31.38 2.09 1.88 2.09a4.53 4.53 0 001.79-.35l.17.48a5.12 5.12 0 01-2 .42c-1.88 0-2.45-1.09-2.45-2.69zM354.52 269.21a3.37 3.37 0 013.37-3.53 2.84 2.84 0 013 3.11 2.92 2.92 0 010 .51h-6v-.52h5.76l-.26.25c0-1.91-1-2.82-2.43-2.82a2.78 2.78 0 00-2.74 3 2.83 2.83 0 002.94 3 3.79 3.79 0 002.26-.73l.26.48a4.46 4.46 0 01-2.56.79 3.39 3.39 0 01-3.6-3.54zM365.65 269.08l-2.47-3.24h.71l1.29 1.71c.27.37.55.77.85 1.13h.06c.29-.36.61-.78.88-1.15l1.26-1.69h.68l-2.5 3.27 2.71 3.46h-.71l-1.41-1.82c-.31-.38-.64-.85-1-1.25-.32.42-.62.82-.94 1.26l-1.39 1.81H363zM373.39 270.05v-3.67h-2v-.48l2-.06.09-2.22h.52v2.22h3.58v.54H374v3.72c0 1.31.38 2.09 1.88 2.09a4.53 4.53 0 001.79-.35l.17.48a5.16 5.16 0 01-2.05.42c-1.79 0-2.4-1.09-2.4-2.69zM384.81 262.62h.63l-4.57 12.19h-.63zM388.26 269.22a3.44 3.44 0 013.66-3.54 3.29 3.29 0 012.42 1l-.36.43a2.91 2.91 0 00-2-.91 2.87 2.87 0 00-3 3 2.84 2.84 0 003 3 3.28 3.28 0 002.26-1l.33.43a3.77 3.77 0 01-2.61 1.09 3.38 3.38 0 01-3.7-3.5zM396.59 271.67l.32-.45a4.63 4.63 0 003 1c1.37 0 2.08-.62 2.08-1.33s-.24-1.1-2.37-1.53c-1.71-.34-2.68-.89-2.68-1.88s.82-1.79 2.62-1.79a4.71 4.71 0 012.58.82l-.33.45a3.85 3.85 0 00-2.3-.74c-1.46 0-1.93.59-1.93 1.22s.69 1.07 2.21 1.38c2.33.49 2.84 1 2.84 2s-1 1.9-2.78 1.9a5.67 5.67 0 01-3.26-1.05zM405 271.67l.32-.45a4.63 4.63 0 003.05 1c1.37 0 2.08-.62 2.08-1.33s-.24-1.1-2.37-1.53c-1.71-.34-2.68-.89-2.68-1.88s.82-1.79 2.62-1.79a4.71 4.71 0 012.58.82l-.33.45a3.85 3.85 0 00-2.3-.74c-1.46 0-1.93.59-1.93 1.22s.69 1.07 2.21 1.38c2.33.49 2.84 1 2.84 2s-1 1.9-2.78 1.9a5.67 5.67 0 01-3.31-1.05zM414.45 264.18v-1.24h1.05v1.24l-.28 3.05h-.5zm2.92 0v-1.24h1.05v1.24l-.28 3.05h-.5zM35.73 279.29h.62v4.69a3.67 3.67 0 012.69-1.5c1.63 0 2.41.88 2.41 2.7v4.19h-.62v-4.11c0-1.5-.56-2.22-1.89-2.22-1 0-1.61.49-2.58 1.51v4.82h-.62zM44.94 282.64h.52l.08 1.67a3.82 3.82 0 013.17-1.83 2.93 2.93 0 011.35.28l-.17.55a3.27 3.27 0 00-1.28-.24c-1.12 0-2.14.57-3.07 2.1v4.2h-.62zM52.12 286a3.37 3.37 0 013.38-3.53 2.84 2.84 0 013 3.11 2.91 2.91 0 010 .51h-6v-.52h5.7l-.26.25c0-1.91-1-2.82-2.44-2.82a2.79 2.79 0 00-2.74 3 2.83 2.83 0 003 3 3.88 3.88 0 002.26-.72l.25.47a4.4 4.4 0 01-2.55.79 3.4 3.4 0 01-3.6-3.54zM61.07 282.7l2-.06h3.73v.54h-5.73zm2-.87c0-1.69.83-2.7 2.53-2.7a4.18 4.18 0 011.87.41l-.19.48a3.37 3.37 0 00-1.65-.35c-1.42 0-2 .86-2 2.11v7.59h-.6zM69.17 283.06h5.76v.52h-5.76zm0 2.85h5.76v.53h-5.76zM78.46 281v-1.24h1V281l-.29 3h-.5zm2.92 0v-1.24h1.06V281l-.28 3h-.5zM85.87 286a3.44 3.44 0 013.67-3.54 3.28 3.28 0 012.41 1l-.36.43a2.91 2.91 0 00-2-.91 2.87 2.87 0 00-3 3 2.84 2.84 0 003 3 3.28 3.28 0 002.26-1l.33.43a3.77 3.77 0 01-2.61 1.09 3.38 3.38 0 01-3.7-3.5zM94.2 288.47l.32-.45a4.63 4.63 0 003 1c1.38 0 2.08-.61 2.08-1.32s-.24-1.1-2.37-1.53c-1.71-.34-2.68-.89-2.68-1.88s.82-1.79 2.62-1.79a4.71 4.71 0 012.58.82l-.33.45a3.78 3.78 0 00-2.29-.75c-1.47 0-1.94.6-1.94 1.23s.69 1.06 2.21 1.38c2.33.49 2.84 1 2.84 2s-1 1.9-2.78 1.9a5.67 5.67 0 01-3.26-1.06zM102.6 288.47l.32-.45a4.63 4.63 0 003 1c1.38 0 2.08-.61 2.08-1.32s-.24-1.1-2.37-1.53c-1.71-.34-2.68-.89-2.68-1.88s.82-1.79 2.62-1.79a4.71 4.71 0 012.58.82l-.33.45a3.78 3.78 0 00-2.29-.75c-1.47 0-1.94.6-1.94 1.23s.69 1.06 2.21 1.38c2.33.49 2.84 1 2.84 2s-1 1.9-2.78 1.9a5.67 5.67 0 01-3.26-1.06zM116 279.42h.63l-4.57 12.19h-.63zM121.61 288.62a.84.84 0 111.68 0 .84.84 0 11-1.68 0zM130 288.62a.84.84 0 111.68 0 .84.84 0 11-1.68 0zM36 301.8v-.57l5.11-3.55v.68l-4.5 3.13v.06l4.5 3.13v.67zM48.83 296.22h.62l-4.57 12.19h-.63zM52.53 296.09h.62v4.67a3.67 3.67 0 012.69-1.5c1.63 0 2.41.88 2.41 2.7v4.19h-.62v-4.11c0-1.5-.56-2.22-1.89-2.22-1 0-1.61.49-2.58 1.51v4.82h-.62zM60.52 302.81a3.37 3.37 0 013.38-3.53 2.84 2.84 0 013 3.11 2.91 2.91 0 010 .51h-6v-.52h5.7l-.26.25c0-1.91-1-2.82-2.44-2.82a2.79 2.79 0 00-2.74 3 2.83 2.83 0 003 3 3.88 3.88 0 002.26-.72l.25.47a4.4 4.4 0 01-2.55.79 3.4 3.4 0 01-3.6-3.54zM69.13 304.5c0-1.51 1.51-2.22 5.16-2.54 0-1.11-.46-2.14-2-2.14a4.71 4.71 0 00-2.54.91l-.29-.45a5.41 5.41 0 012.91-1 2.34 2.34 0 012.54 2.59v4.3h-.52l-.07-1a4.86 4.86 0 01-2.81 1.18c-1.23-.01-2.38-.59-2.38-1.85zm5.16.08v-2.15c-3.42.31-4.52.95-4.52 2s.91 1.34 1.81 1.34a4.32 4.32 0 002.71-1.19zM77.19 302.82a3.28 3.28 0 013.17-3.54 3.21 3.21 0 012.2 1v-4.14h.62v10.08h-.53l-.06-1a3.46 3.46 0 01-2.4 1.17c-1.8-.05-3-1.3-3-3.57zm5.37 1.73v-3.73a3.07 3.07 0 00-2.16-1 2.77 2.77 0 00-2.56 3c0 1.79.9 3 2.4 3a3.29 3.29 0 002.32-1.27zM86.22 304.68l4.51-3.13v-.06l-4.51-3.13v-.68l5.11 3.55v.57l-5.11 3.55z"/></g></svg>
