<svg xmlns="http://www.w3.org/2000/svg" viewBox="0 0 500 308.99"><defs><style>.cls-1{fill:#7fd0dc;}.cls-2{font-size:12px;fill:#231f20;font-family:MyriadPro-Regular, Myriad Pro;}.cls-3{letter-spacing:-0.01em;}.cls-4{letter-spacing:0em;}.cls-5{letter-spacing:-0.01em;}.cls-6{fill:#0f676c;}</style></defs><g id="Layer_2" data-name="Layer 2"><polygon class="cls-1" points="92.56 117.26 157.44 34.61 315.54 61.52 411.64 155.08 424.14 223.46 278.53 275.84 156.48 267.19 92.56 117.26"/><text class="cls-2" transform="translate(11.13 122.59)">599<tspan class="cls-3" x="18.47" y="0">p</tspan><tspan class="cls-4" x="25.13" y="0">x, 112</tspan><tspan class="cls-5" x="54.18" y="0">p</tspan><tspan x="60.84" y="0">x</tspan></text><text class="cls-2" transform="translate(77.38 34.61)">673<tspan class="cls-3" x="18.47" y="0">p</tspan><tspan class="cls-4" x="25.13" y="0">x, 15</tspan><tspan class="cls-5" x="48.02" y="0">p</tspan><tspan x="54.68" y="0">x</tspan></text><text class="cls-2" transform="translate(255.73 47.9)">859<tspan class="cls-3" x="18.47" y="0">p</tspan><tspan class="cls-4" x="25.13" y="0">x, 46</tspan><tspan class="cls-5" x="48.02" y="0">p</tspan><tspan x="54.68" y="0">x</tspan></text><text class="cls-2" transform="translate(426.53 155.23)">971<tspan class="cls-3" x="18.47" y="0">p</tspan><tspan class="cls-4" x="25.13" y="0">x, 155</tspan><tspan class="cls-5" x="54.18" y="0">p</tspan><tspan x="60.84" y="0">x</tspan></text><text class="cls-2" transform="translate(295.1 284.18)">816<tspan class="cls-3" x="18.47" y="0">p</tspan><tspan class="cls-4" x="25.13" y="0">x, 298</tspan><tspan class="cls-5" x="54.18" y="0">p</tspan><tspan x="60.84" y="0">x</tspan></text><text class="cls-2" transform="translate(70.32 266.08)">672<tspan class="cls-3" x="18.47" y="0">p</tspan><tspan class="cls-4" x="25.13" y="0">x, 286</tspan><tspan class="cls-5" x="54.18" y="0">p</tspan><tspan x="60.84" y="0">x</tspan></text><circle class="cls-6" cx="95.73" cy="117.29" r="13.29"/><circle class="cls-6" cx="160.9" cy="34.61" r="13.29"/><circle class="cls-6" cx="315.39" cy="63.82" r="13.29"/><circle class="cls-6" cx="407.53" cy="155.23" r="13.29"/><circle class="cls-6" cx="420.81" cy="222.64" r="13.29"/><circle class="cls-6" cx="273.78" cy="275.84" r="13.29"/><circle class="cls-6" cx="157.49" cy="262.55" r="13.29"/><text/></g></svg>