<svg xmlns="http://www.w3.org/2000/svg" viewBox="0 0 500 500"><defs><linearGradient id="ModernBlueGradient" x1="5" y1="248.5" x2="494" y2="248.5" gradientUnits="userSpaceOnUse"><stop offset="0" stop-color="#0077ec"/><stop offset="1" stop-color="#0077b7"/></linearGradient><style>.cls-2{fill:#fff}</style></defs><g id="Layer_1" data-name="Layer 1"><circle cx="249.5" cy="248.5" r="244.5" fill="url(#ModernBlueGradient)"/><path class="cls-2" d="M249.5 42.31a206.25 206.25 0 0180.25 396.19 206.25 206.25 0 01-160.5-380 204.75 204.75 0 0180.25-16.19m0-26.08c-128.28 0-232.27 104-232.27 232.27s104 232.27 232.27 232.27 232.27-104 232.27-232.27S377.78 16.23 249.5 16.23z"/></g><g id="Layer_2" data-name="Layer 2"><path class="cls-2" d="M96.14 249.22H80.82v-29.57q0-5.39.23-9.86a32.4 32.4 0 01-3.51 3.6l-6.34 5.23-7.84-9.62 19.18-15.62h13.6zM127.45 212.62a17.07 17.07 0 018.69 2.24 15.41 15.41 0 016 6.32 19.89 19.89 0 012.16 9.44q0 9.36-5.64 14.36t-17 5q-9.78 0-16-3v-12.39a40 40 0 007.5 2.52 32 32 0 007.21 1 10.23 10.23 0 006.45-1.77 6.28 6.28 0 002.26-5.26 6 6 0 00-2.3-5q-2.28-1.8-7-1.8a25.06 25.06 0 00-7.68 1.34l-5.54-2.75 2.1-29.49h31.94v12.57h-19l-.69 7.37a35.07 35.07 0 014.24-.63c.85-.05 1.59-.07 2.3-.07zM187.11 221.37q0 14.82-5 21.72T166.94 250q-10 0-15.09-7.2t-5.08-21.41q0-14.9 5-21.85t15.2-7q10 0 15.07 7.23t5.07 21.6zm-25.33 0q0 9.48 1.19 13t4 3.55q2.84 0 4-3.67t1.17-12.91q0-9.28-1.19-13t-4-3.72c-1.86 0-3.18 1.19-4 3.59s-1.17 6.79-1.17 13.16zM204.55 250a12.94 12.94 0 01-8.08-2.63 16.73 16.73 0 01-5.34-7.76 34.45 34.45 0 01-1.89-12q0-10.54 4.24-16.51a14.46 14.46 0 0118-4.51 14.07 14.07 0 015 4.89h.31a72.22 72.22 0 01-.73-10.16v-11.54h15.06v59.44h-11.28l-3.21-5.46h-.58a12.65 12.65 0 01-11.5 6.24zm6.12-11.8q3.59 0 5.06-2.25c1-1.51 1.51-3.82 1.58-7v-1.18c0-3.82-.54-6.54-1.64-8.16a5.77 5.77 0 00-5.16-2.42A5 5 0 00206 220q-1.62 2.76-1.62 7.88c0 3.37.54 5.93 1.64 7.68a5.22 5.22 0 004.65 2.62zM265.74 249.22l-2.86-5.73h-.31a17 17 0 01-6.15 5.12 20.28 20.28 0 01-8.1 1.37q-6.1 0-9.63-3.66T235.18 236q0-6.92 4.81-10.29t13.95-3.8l7.22-.23v-.62q0-5.34-5.28-5.34-4.73 0-12 3.21l-4.32-9.86q7.58-3.9 19.11-3.9 8.33 0 12.89 4.13t4.56 11.54v28.38zm-11.08-9.78a6.7 6.7 0 004.64-1.72 5.68 5.68 0 001.93-4.47v-3.36l-3.44.15q-7.37.27-7.37 5.43c0 2.65 1.42 3.97 4.24 3.97zM277.11 205.94h15.74l7.34 24.83a25.08 25.08 0 01.72 4.7h.31a26.54 26.54 0 01.91-4.63l7.53-24.9h15.24l-17.11 46q-3.29 8.79-8.08 12.42T287.2 268a30.34 30.34 0 01-6.12-.65v-11.71a21.47 21.47 0 004.63.46 7.49 7.49 0 003.47-.77 7.88 7.88 0 002.6-2.16 18.93 18.93 0 002.37-4.56zM359.58 235.93q0 6.94-4.74 10.5t-13.6 3.57a59.78 59.78 0 01-8.37-.51 36.38 36.38 0 01-7.26-1.89v-12a44.79 44.79 0 007.62 2.52 32.29 32.29 0 007.4 1c3.23 0 4.85-.73 4.85-2.21a2.47 2.47 0 00-1.36-2 60.55 60.55 0 00-7.89-3.5q-6-2.44-8.32-5.56a12.63 12.63 0 01-2.37-7.89 10.94 10.94 0 014.66-9.4q4.65-3.36 13.18-3.36a32.94 32.94 0 018 .94 47.1 47.1 0 017.81 2.73l-4.05 9.63a46.41 46.41 0 00-6.3-2.28 21.1 21.1 0 00-5.43-.93c-2.44 0-3.66.6-3.66 1.79a2.22 2.22 0 001.28 1.89 65.37 65.37 0 007.39 3.19 28.37 28.37 0 016.78 3.67 11.16 11.16 0 013.29 4.22 14.88 14.88 0 011.09 5.88zM405.29 227.48q0 10.62-5.71 16.56t-16 5.94q-9.85 0-15.68-6.07t-5.83-16.43q0-10.57 5.71-16.44t16-5.87a23 23 0 0111.27 2.71 18.52 18.52 0 017.55 7.78 25.07 25.07 0 012.69 11.82zm-28 0q0 5.58 1.49 8.5a5.18 5.18 0 005 2.93 5 5 0 004.91-2.93q1.44-2.92 1.44-8.5t-1.46-8.36a5.75 5.75 0 00-9.89 0q-1.52 2.79-1.53 8.36zM436.33 217.13h-9.2v32.09h-14.94v-32.09h-5.73v-7.34l6-3.66v-.73q0-8.55 3.49-12.3t11.21-3.74a33.75 33.75 0 015.64.45 44.78 44.78 0 016.17 1.61l-3.21 9.66a20 20 0 00-5.39-.76 2.92 2.92 0 00-2.5 1.05 5.83 5.83 0 00-.78 3.42v1.15h9.2zM122 310.88l-38.6-17.15v-6.57l38.6-19.33v11.34L98.34 290l23.66 9.61zM153.41 317.68v-23.61q0-8.71-5.16-8.71a5.78 5.78 0 00-5.4 3.07c-1.16 2.06-1.74 5.46-1.74 10.22v19h-14.94v-59.41h14.94v8.44q0 5.73-.61 13.06h.68a12.21 12.21 0 015.09-4.73 15.92 15.92 0 016.83-1.38q7.26 0 11.29 4.19c2.69 2.78 4 6.69 4 11.7v28.16zM195.88 306.64a22.3 22.3 0 007.22-1.49V316a29.82 29.82 0 01-5.75 1.85 32.54 32.54 0 01-6.4.55q-7.53 0-10.85-3.68t-3.32-11.33v-17.8h-5.24v-6.07l6.65-4.7 3.86-9.1h9.78v8.68h10.62v11.19h-10.62v16.85q0 4.2 4.05 4.2zM259.89 317.68v-23.53a14.14 14.14 0 00-1.2-6.59 4 4 0 00-3.8-2.2 5.35 5.35 0 00-5 2.94q-1.6 2.94-1.6 9.21v20.17h-15v-23.53a14.79 14.79 0 00-1.14-6.59 3.88 3.88 0 00-3.71-2.2 5.37 5.37 0 00-5.12 3.13q-1.6 3.13-1.6 10.24v18.95h-14.97V274.4H218l1.87 5.34h.88a11.18 11.18 0 015-4.54 16.86 16.86 0 017.43-1.57q9.36 0 13.14 5.69h1.18a12.25 12.25 0 015.1-4.18 17.07 17.07 0 017.2-1.51q7.68 0 11.35 3.94t3.67 11.95v28.16z"/><path class="cls-2" d="M296 317.68h-14.92v-59.44H296zM348.13 261l-20.82 57.41h-13.22L334.91 261zM347.12 299.61l23.69-9.61-23.69-10.81v-11.36l38.63 19.33v6.57l-38.63 17.15z"/></g></svg>
