<?xml version="1.0" standalone="no"?>
<!DOCTYPE svg PUBLIC "-//W3C//DTD SVG 20010904//EN"
 "http://www.w3.org/TR/2001/REC-SVG-20010904/DTD/svg10.dtd">
<svg version="1.0" xmlns="http://www.w3.org/2000/svg"
 width="700.000000pt" height="700.000000pt" viewBox="0 0 700.000000 700.000000"
 preserveAspectRatio="xMidYMid meet">
<metadata>
Created by potrace 1.14, written by Peter Selinger 2001-2017
</metadata>
<g transform="translate(0.000000,700.000000) scale(0.100000,-0.100000)"
fill="#000000" stroke="none">
<path d="M3215 6934 c-478 -47 -860 -156 -1265 -359 -722 -363 -1313 -999
-1617 -1739 -125 -304 -200 -595 -245 -951 -19 -152 -16 -609 5 -769 88 -661
331 -1239 733 -1741 113 -142 378 -407 519 -519 548 -437 1189 -691 1880 -747
179 -14 528 -7 694 15 768 102 1453 437 1991 976 768 768 1125 1842 969 2915
-206 1426 -1292 2574 -2704 2860 -231 47 -336 57 -635 60 -157 1 -303 1 -325
-1z m570 -174 c759 -71 1460 -398 1996 -930 507 -504 818 -1121 931 -1845 26
-167 36 -578 19 -763 -86 -914 -547 -1742 -1281 -2296 -177 -133 -286 -201
-505 -311 -431 -219 -862 -327 -1355 -342 -907 -27 -1754 310 -2400 957 -524
523 -840 1184 -931 1945 -17 141 -17 546 -1 690 74 627 295 1172 678 1665 106
137 381 416 514 521 491 390 1077 637 1660 698 58 6 119 13 135 15 72 8 440 5
540 -4z"/>
<path d="M3320 6404 c-578 -41 -1113 -238 -1565 -578 -625 -469 -1037 -1189
-1130 -1975 -29 -236 -20 -568 21 -811 262 -1557 1743 -2620 3303 -2370 1107
178 2018 988 2320 2065 77 275 104 478 104 780 1 309 -29 530 -109 808 -317
1103 -1268 1915 -2413 2061 -124 16 -426 27 -531 20z m2754 -2066 c32 -6 60
-16 62 -22 2 -6 -4 -36 -14 -66 l-19 -55 -53 -1 c-55 -2 -70 -12 -70 -51 0
-22 4 -23 65 -23 l65 0 0 -80 0 -80 -65 0 -65 0 0 -225 0 -225 -105 0 -105 0
0 225 0 225 -40 0 -40 0 0 53 c0 50 2 53 39 74 35 20 40 28 46 70 8 64 32 127
55 148 46 42 138 55 244 33z m-2834 -413 l0 -415 -80 0 -80 0 -25 41 -26 40
-21 -27 c-49 -62 -151 -80 -228 -41 -90 45 -136 162 -128 322 6 109 33 179 88
229 80 72 183 73 258 2 l33 -31 -7 148 -7 147 112 0 111 0 0 -415z m-784 356
c95 -43 151 -158 161 -333 16 -275 -70 -429 -248 -445 -154 -14 -259 68 -299
235 -15 67 -16 252 0 328 24 114 81 191 162 221 53 19 176 16 224 -6z m-1106
-381 l0 -390 -110 0 -110 0 0 271 0 270 -66 -56 c-37 -31 -70 -53 -74 -48
-101 121 -103 124 -89 138 8 7 68 56 133 109 l119 96 99 0 98 0 0 -390z m620
305 l0 -85 -135 0 -135 0 0 -34 c0 -19 -3 -41 -6 -50 -5 -14 5 -16 70 -16 85
0 135 -16 179 -58 99 -94 102 -285 7 -380 -49 -49 -110 -72 -211 -79 -76 -6
-189 8 -234 29 -24 11 -25 16 -25 96 0 76 2 84 18 79 124 -39 208 -47 257 -25
29 13 55 55 55 87 0 12 -13 35 -28 52 -24 27 -38 33 -83 37 -30 2 -72 -1 -93
-6 -33 -9 -45 -8 -78 9 l-39 20 6 57 c6 65 25 319 25 339 0 10 47 13 225 13
l225 0 0 -85z m1786 -105 c52 -26 88 -74 103 -140 6 -25 11 -136 11 -247 l0
-203 -75 0 -75 0 -20 41 -21 40 -39 -35 c-83 -75 -236 -74 -303 2 -63 71 -59
204 8 268 39 37 121 60 234 68 40 3 75 7 78 10 11 11 -24 61 -49 70 -26 9 -85
-1 -174 -29 -18 -6 -24 2 -47 53 -15 33 -27 64 -27 70 0 15 66 37 170 56 59
11 180 -2 226 -24z m1211 0 c69 -24 67 -14 24 -113 -18 -42 -23 -47 -40 -38
-33 18 -137 39 -165 34 -20 -4 -26 -11 -24 -26 2 -14 26 -30 90 -58 108 -46
141 -69 162 -113 20 -42 21 -137 2 -174 -18 -34 -51 -64 -96 -88 -44 -24 -239
-27 -312 -5 l-48 14 0 84 c0 77 2 84 18 78 92 -38 235 -53 251 -26 16 25 1 38
-77 72 -149 64 -192 109 -192 204 0 124 102 190 275 180 39 -3 98 -14 132 -25z
m535 2 c62 -27 105 -68 135 -126 22 -42 27 -68 31 -146 5 -114 -17 -185 -75
-245 -58 -59 -112 -79 -219 -80 -81 0 -96 3 -149 30 -109 56 -161 160 -153
304 9 153 81 247 215 281 54 13 165 4 215 -18z m-1382 -54 c12 -40 37 -124 56
-187 19 -62 34 -123 34 -135 1 -11 16 31 35 94 19 63 47 156 63 205 l28 90
102 3 c82 2 102 0 102 -11 0 -21 -235 -648 -264 -705 -23 -45 -107 -132 -127
-132 -5 0 -9 -162 -9 -360 l0 -361 -102 3 -103 3 -3 432 -2 432 55 -1 c60 -2
92 18 121 73 12 25 6 46 -106 325 -66 164 -120 300 -120 301 0 2 49 3 110 3
l109 0 21 -72z m-2145 -818 l-8 -151 35 35 c41 41 104 60 172 52 71 -8 117
-36 151 -91 l30 -48 3 -239 4 -238 -105 0 -105 0 -4 198 c-3 171 -5 202 -21
226 -16 23 -24 27 -59 24 -31 -2 -46 -10 -62 -31 -19 -26 -21 -45 -26 -220
l-5 -192 -102 -3 -103 -3 0 416 0 415 106 0 106 0 -7 -150z m2895 113 c0 -5
-65 -186 -143 -403 l-144 -395 -91 -3 c-51 -1 -92 -1 -92 2 0 4 206 579 285
794 5 13 185 18 185 5z m-2180 -123 l0 -60 70 0 70 0 0 -80 0 -80 -70 0 -70 0
0 -133 c0 -90 4 -137 12 -145 14 -14 77 -16 112 -2 l26 10 0 -79 0 -78 -47
-14 c-27 -8 -82 -14 -124 -14 -92 1 -133 22 -168 84 -22 40 -24 58 -29 207
l-5 164 -33 0 c-33 0 -34 1 -34 43 0 41 3 46 50 78 27 19 50 37 50 40 0 4 11
32 25 63 l25 56 70 0 70 0 0 -60z m-980 -49 l0 -79 -160 -73 c-88 -40 -160
-76 -160 -79 0 -4 72 -35 160 -70 l160 -63 0 -80 c0 -44 -4 -77 -9 -75 -5 2
-127 55 -270 118 l-261 115 0 47 0 48 268 134 c147 74 268 135 270 135 1 1 2
-34 2 -78z m3688 -239 l-3 -47 -264 -117 c-145 -65 -266 -118 -268 -118 -1 0
-3 35 -3 78 l0 79 160 63 c88 35 160 66 160 69 0 4 -71 39 -157 78 l-158 72
-3 81 -3 80 271 -135 271 -136 -3 -47z m-2010 209 c24 -12 45 -28 49 -36 8
-22 21 -18 59 14 80 71 220 67 295 -8 51 -50 59 -100 59 -351 l0 -210 -105 0
-105 0 0 188 c0 158 -3 192 -18 222 -17 36 -43 47 -86 36 -44 -11 -51 -39 -56
-246 l-5 -195 -102 -3 -101 -3 -4 199 c-4 228 -10 252 -73 252 -72 0 -86 -39
-93 -268 l-5 -183 -101 3 -101 3 0 300 0 300 78 3 c56 2 79 -1 82 -10 27 -77
25 -75 43 -53 64 76 192 96 290 46z"/>
<path d="M2902 3940 c-46 -43 -54 -185 -14 -239 33 -46 111 -40 137 9 20 39
20 161 0 200 -27 52 -84 66 -123 30z"/>
<path d="M2293 4103 c-16 -23 -18 -52 -18 -203 0 -152 2 -180 18 -203 21 -32
56 -36 80 -9 27 29 40 126 35 257 -6 143 -21 185 -68 185 -21 0 -35 -8 -47
-27z"/>
<path d="M3560 3773 c-31 -12 -50 -37 -50 -68 0 -40 16 -55 56 -55 47 0 84 35
91 88 l6 42 -44 -1 c-24 0 -51 -3 -59 -6z"/>
<path d="M5321 3951 c-50 -50 -52 -220 -4 -273 17 -19 77 -24 100 -10 40 25
57 178 29 247 -23 55 -87 74 -125 36z"/>
</g>
</svg>
